<svg width="1920" height="600" viewBox="0 0 1920 600" fill="none" xmlns="http://www.w3.org/2000/svg">
<rect width="1920" height="600" rx="27" fill="#2C2F3D"/>
<path d="M102.92 403V312.818H133.392C140.467 312.818 146.25 314.095 150.741 316.649C155.262 319.174 158.609 322.594 160.781 326.909C162.954 331.224 164.04 336.039 164.04 341.352C164.04 346.666 162.954 351.495 160.781 355.839C158.638 360.184 155.321 363.648 150.83 366.232C146.338 368.786 140.584 370.062 133.568 370.062H111.727V360.375H133.216C138.06 360.375 141.949 359.538 144.885 357.865C147.821 356.192 149.949 353.931 151.27 351.084C152.62 348.207 153.295 344.963 153.295 341.352C153.295 337.741 152.62 334.512 151.27 331.665C149.949 328.817 147.806 326.586 144.841 324.972C141.876 323.328 137.942 322.506 133.04 322.506H113.841V403H102.92ZM180.222 403V335.364H190.614V403H180.222ZM185.506 324.091C183.481 324.091 181.734 323.401 180.266 322.021C178.828 320.642 178.109 318.983 178.109 317.045C178.109 315.108 178.828 313.449 180.266 312.07C181.734 310.69 183.481 310 185.506 310C187.532 310 189.264 310.69 190.702 312.07C192.17 313.449 192.904 315.108 192.904 317.045C192.904 318.983 192.17 320.642 190.702 322.021C189.264 323.401 187.532 324.091 185.506 324.091ZM217.398 335.364L233.603 363.017L249.807 335.364H261.784L239.944 369.182L261.784 403H249.807L233.603 376.756L217.398 403H205.421L226.909 369.182L205.421 335.364H217.398ZM276.613 403V335.364H287.005V403H276.613ZM281.897 324.091C279.871 324.091 278.125 323.401 276.657 322.021C275.219 320.642 274.499 318.983 274.499 317.045C274.499 315.108 275.219 313.449 276.657 312.07C278.125 310.69 279.871 310 281.897 310C283.923 310 285.655 310.69 287.093 312.07C288.561 313.449 289.295 315.108 289.295 317.045C289.295 318.983 288.561 320.642 287.093 322.021C285.655 323.401 283.923 324.091 281.897 324.091ZM334.397 404.409C327.88 404.409 322.258 402.971 317.532 400.094C312.835 397.188 309.209 393.136 306.655 387.94C304.131 382.715 302.868 376.638 302.868 369.71C302.868 362.782 304.131 356.676 306.655 351.392C309.209 346.079 312.761 341.939 317.311 338.974C321.891 335.98 327.234 334.483 333.34 334.483C336.863 334.483 340.341 335.07 343.776 336.244C347.211 337.419 350.337 339.327 353.155 341.969C355.973 344.581 358.219 348.045 359.892 352.361C361.566 356.676 362.402 361.99 362.402 368.301V372.705H310.266V363.722H351.834C351.834 359.905 351.071 356.5 349.544 353.506C348.047 350.511 345.904 348.148 343.115 346.416C340.356 344.684 337.097 343.818 333.34 343.818C329.201 343.818 325.619 344.846 322.596 346.901C319.601 348.926 317.297 351.568 315.682 354.827C314.068 358.085 313.26 361.579 313.26 365.307V371.295C313.26 376.403 314.141 380.733 315.902 384.286C317.693 387.808 320.174 390.494 323.344 392.344C326.515 394.164 330.199 395.074 334.397 395.074C337.127 395.074 339.593 394.692 341.794 393.929C344.025 393.136 345.948 391.962 347.563 390.406C349.177 388.821 350.425 386.854 351.306 384.506L361.346 387.324C360.289 390.729 358.513 393.723 356.017 396.307C353.522 398.861 350.44 400.857 346.77 402.295C343.101 403.705 338.976 404.409 334.397 404.409ZM388.603 362.312V403H378.211V312.818H388.603V345.932H389.483C391.069 342.438 393.446 339.664 396.617 337.609C399.817 335.525 404.073 334.483 409.387 334.483C413.996 334.483 418.032 335.408 421.496 337.257C424.96 339.077 427.646 341.881 429.554 345.668C431.492 349.425 432.461 354.21 432.461 360.023V403H422.069V360.727C422.069 355.355 420.674 351.201 417.885 348.266C415.126 345.301 411.295 343.818 406.392 343.818C402.987 343.818 399.934 344.537 397.233 345.976C394.562 347.414 392.448 349.513 390.892 352.273C389.366 355.032 388.603 358.379 388.603 362.312ZM478.95 404.409C472.844 404.409 467.486 402.956 462.877 400.05C458.298 397.143 454.716 393.078 452.133 387.852C449.579 382.627 448.302 376.521 448.302 369.534C448.302 362.489 449.579 356.339 452.133 351.084C454.716 345.829 458.298 341.749 462.877 338.842C467.486 335.936 472.844 334.483 478.95 334.483C485.056 334.483 490.398 335.936 494.978 338.842C499.587 341.749 503.168 345.829 505.722 351.084C508.306 356.339 509.597 362.489 509.597 369.534C509.597 376.521 508.306 382.627 505.722 387.852C503.168 393.078 499.587 397.143 494.978 400.05C490.398 402.956 485.056 404.409 478.95 404.409ZM478.95 395.074C483.588 395.074 487.404 393.885 490.398 391.507C493.393 389.129 495.609 386.003 497.048 382.128C498.486 378.253 499.205 374.055 499.205 369.534C499.205 365.013 498.486 360.801 497.048 356.896C495.609 352.992 493.393 349.836 490.398 347.429C487.404 345.022 483.588 343.818 478.95 343.818C474.311 343.818 470.495 345.022 467.501 347.429C464.506 349.836 462.29 352.992 460.852 356.896C459.413 360.801 458.694 365.013 458.694 369.534C458.694 374.055 459.413 378.253 460.852 382.128C462.29 386.003 464.506 389.129 467.501 391.507C470.495 393.885 474.311 395.074 478.95 395.074ZM552.762 429.773C547.742 429.773 543.426 429.127 539.816 427.835C536.205 426.573 533.196 424.9 530.789 422.815C528.411 420.76 526.517 418.559 525.108 416.21L533.387 410.398C534.326 411.631 535.515 413.04 536.953 414.625C538.392 416.24 540.359 417.634 542.854 418.808C545.379 420.012 548.681 420.614 552.762 420.614C558.222 420.614 562.728 419.293 566.28 416.651C569.832 414.009 571.608 409.869 571.608 404.233V390.494H570.728C569.964 391.727 568.878 393.254 567.469 395.074C566.089 396.865 564.093 398.464 561.48 399.874C558.897 401.253 555.404 401.943 551 401.943C545.54 401.943 540.638 400.652 536.293 398.068C531.978 395.485 528.558 391.727 526.033 386.795C523.538 381.864 522.29 375.875 522.29 368.83C522.29 361.902 523.508 355.869 525.945 350.732C528.382 345.565 531.772 341.572 536.117 338.754C540.462 335.907 545.481 334.483 551.176 334.483C555.58 334.483 559.073 335.217 561.657 336.685C564.269 338.123 566.266 339.767 567.645 341.616C569.054 343.437 570.141 344.934 570.904 346.108H571.961V335.364H582V404.938C582 410.75 580.679 415.476 578.037 419.116C575.425 422.786 571.902 425.472 567.469 427.175C563.066 428.907 558.163 429.773 552.762 429.773ZM552.409 392.608C556.578 392.608 560.101 391.654 562.978 389.746C565.855 387.838 568.042 385.093 569.539 381.511C571.036 377.93 571.784 373.644 571.784 368.653C571.784 363.78 571.051 359.48 569.583 355.751C568.115 352.023 565.943 349.102 563.066 346.989C560.189 344.875 556.637 343.818 552.409 343.818C548.006 343.818 544.337 344.934 541.401 347.165C538.495 349.396 536.308 352.39 534.84 356.148C533.401 359.905 532.682 364.074 532.682 368.653C532.682 373.35 533.416 377.504 534.884 381.115C536.381 384.696 538.583 387.515 541.489 389.57C544.425 391.595 548.065 392.608 552.409 392.608Z" fill="white"/>
<path d="M206.622 124.332H202.634C202.48 123.48 202.195 122.73 201.777 122.082C201.359 121.435 200.848 120.885 200.243 120.433C199.638 119.982 198.96 119.641 198.21 119.411C197.469 119.18 196.68 119.065 195.845 119.065C194.337 119.065 192.986 119.445 191.793 120.203C190.608 120.962 189.67 122.074 188.98 123.54C188.298 125.006 187.957 126.795 187.957 128.909C187.957 131.04 188.298 132.838 188.98 134.304C189.67 135.77 190.612 136.878 191.805 137.628C192.999 138.378 194.341 138.753 195.832 138.753C196.659 138.753 197.443 138.642 198.185 138.42C198.935 138.19 199.612 137.854 200.217 137.411C200.822 136.967 201.334 136.426 201.751 135.787C202.178 135.139 202.472 134.398 202.634 133.562L206.622 133.575C206.409 134.862 205.996 136.047 205.382 137.129C204.777 138.203 203.997 139.132 203.043 139.916C202.097 140.692 201.014 141.293 199.795 141.719C198.577 142.145 197.247 142.358 195.807 142.358C193.54 142.358 191.52 141.821 189.747 140.747C187.974 139.665 186.577 138.118 185.554 136.107C184.54 134.095 184.033 131.696 184.033 128.909C184.033 126.114 184.544 123.714 185.567 121.712C186.589 119.7 187.987 118.158 189.76 117.084C191.533 116.001 193.548 115.46 195.807 115.46C197.196 115.46 198.491 115.661 199.693 116.061C200.903 116.453 201.99 117.033 202.953 117.8C203.916 118.558 204.713 119.487 205.344 120.587C205.974 121.678 206.401 122.926 206.622 124.332ZM219.505 142.396C217.571 142.396 215.904 141.983 214.507 141.156C213.118 140.321 212.044 139.149 211.285 137.641C210.535 136.124 210.16 134.347 210.16 132.31C210.16 130.298 210.535 128.526 211.285 126.991C212.044 125.457 213.1 124.26 214.456 123.399C215.819 122.538 217.413 122.108 219.237 122.108C220.345 122.108 221.419 122.291 222.458 122.658C223.498 123.024 224.431 123.599 225.258 124.384C226.085 125.168 226.737 126.186 227.214 127.439C227.691 128.683 227.93 130.196 227.93 131.977V133.332H212.321V130.469H224.184C224.184 129.463 223.98 128.572 223.571 127.797C223.162 127.013 222.586 126.395 221.845 125.943C221.112 125.491 220.251 125.266 219.262 125.266C218.189 125.266 217.251 125.53 216.45 126.058C215.657 126.578 215.044 127.26 214.609 128.104C214.183 128.939 213.97 129.847 213.97 130.827V133.064C213.97 134.376 214.2 135.493 214.66 136.413C215.129 137.334 215.781 138.037 216.616 138.523C217.451 139 218.427 139.239 219.544 139.239C220.268 139.239 220.929 139.136 221.525 138.932C222.122 138.719 222.637 138.403 223.072 137.986C223.507 137.568 223.839 137.053 224.069 136.439L227.687 137.091C227.397 138.156 226.877 139.089 226.127 139.891C225.386 140.683 224.453 141.301 223.328 141.744C222.211 142.179 220.937 142.396 219.505 142.396ZM235.994 115.818V142H232.171V115.818H235.994ZM246.85 142.435C245.606 142.435 244.481 142.205 243.475 141.744C242.47 141.276 241.673 140.598 241.085 139.712C240.505 138.825 240.216 137.739 240.216 136.452C240.216 135.344 240.429 134.432 240.855 133.716C241.281 133 241.856 132.433 242.581 132.016C243.305 131.598 244.115 131.283 245.01 131.07C245.904 130.857 246.816 130.695 247.745 130.584C248.922 130.447 249.876 130.337 250.609 130.251C251.342 130.158 251.875 130.009 252.207 129.804C252.539 129.599 252.706 129.267 252.706 128.807V128.717C252.706 127.601 252.39 126.736 251.76 126.122C251.137 125.509 250.208 125.202 248.973 125.202C247.686 125.202 246.672 125.487 245.93 126.058C245.197 126.621 244.69 127.247 244.409 127.938L240.816 127.119C241.243 125.926 241.865 124.963 242.683 124.23C243.51 123.489 244.46 122.952 245.534 122.619C246.608 122.278 247.737 122.108 248.922 122.108C249.706 122.108 250.537 122.202 251.414 122.389C252.301 122.568 253.127 122.901 253.895 123.386C254.67 123.872 255.305 124.567 255.799 125.47C256.294 126.365 256.541 127.528 256.541 128.96V142H252.808V139.315H252.654C252.407 139.81 252.037 140.295 251.542 140.773C251.048 141.25 250.413 141.646 249.637 141.962C248.862 142.277 247.933 142.435 246.85 142.435ZM247.681 139.366C248.738 139.366 249.642 139.158 250.392 138.74C251.15 138.322 251.725 137.777 252.118 137.104C252.518 136.422 252.718 135.693 252.718 134.918V132.386C252.582 132.523 252.318 132.651 251.926 132.77C251.542 132.881 251.103 132.979 250.609 133.064C250.115 133.141 249.633 133.213 249.164 133.281C248.696 133.341 248.304 133.392 247.988 133.435C247.247 133.528 246.569 133.686 245.956 133.908C245.35 134.129 244.865 134.449 244.498 134.866C244.14 135.276 243.961 135.821 243.961 136.503C243.961 137.449 244.311 138.165 245.01 138.651C245.708 139.128 246.599 139.366 247.681 139.366ZM268.983 142.384C267.398 142.384 265.983 141.979 264.739 141.169C263.503 140.351 262.531 139.187 261.824 137.679C261.125 136.162 260.776 134.342 260.776 132.22C260.776 130.098 261.129 128.283 261.837 126.774C262.553 125.266 263.533 124.111 264.777 123.31C266.021 122.509 267.432 122.108 269.009 122.108C270.227 122.108 271.207 122.312 271.949 122.722C272.699 123.122 273.278 123.591 273.688 124.128C274.105 124.665 274.429 125.138 274.659 125.547H274.889V115.818H278.712V142H274.979V138.945H274.659C274.429 139.362 274.097 139.839 273.662 140.376C273.236 140.913 272.648 141.382 271.898 141.783C271.148 142.183 270.176 142.384 268.983 142.384ZM269.827 139.124C270.926 139.124 271.855 138.834 272.614 138.254C273.381 137.666 273.96 136.852 274.352 135.812C274.753 134.773 274.953 133.562 274.953 132.182C274.953 130.818 274.757 129.625 274.365 128.602C273.973 127.58 273.398 126.783 272.639 126.212C271.881 125.641 270.943 125.355 269.827 125.355C268.676 125.355 267.717 125.653 266.95 126.25C266.183 126.847 265.604 127.661 265.212 128.692C264.828 129.723 264.636 130.886 264.636 132.182C264.636 133.494 264.832 134.675 265.224 135.723C265.616 136.771 266.196 137.602 266.963 138.216C267.739 138.821 268.693 139.124 269.827 139.124ZM292.439 142.396C290.598 142.396 288.991 141.974 287.619 141.131C286.247 140.287 285.181 139.107 284.423 137.589C283.664 136.072 283.285 134.3 283.285 132.271C283.285 130.234 283.664 128.453 284.423 126.928C285.181 125.402 286.247 124.217 287.619 123.374C288.991 122.53 290.598 122.108 292.439 122.108C294.279 122.108 295.886 122.53 297.258 123.374C298.63 124.217 299.696 125.402 300.454 126.928C301.213 128.453 301.592 130.234 301.592 132.271C301.592 134.3 301.213 136.072 300.454 137.589C299.696 139.107 298.63 140.287 297.258 141.131C295.886 141.974 294.279 142.396 292.439 142.396ZM292.451 139.188C293.645 139.188 294.633 138.872 295.417 138.241C296.201 137.611 296.781 136.771 297.156 135.723C297.539 134.675 297.731 133.52 297.731 132.259C297.731 131.006 297.539 129.855 297.156 128.807C296.781 127.75 296.201 126.902 295.417 126.263C294.633 125.624 293.645 125.304 292.451 125.304C291.25 125.304 290.252 125.624 289.46 126.263C288.676 126.902 288.092 127.75 287.708 128.807C287.333 129.855 287.146 131.006 287.146 132.259C287.146 133.52 287.333 134.675 287.708 135.723C288.092 136.771 288.676 137.611 289.46 138.241C290.252 138.872 291.25 139.188 292.451 139.188ZM309.681 130.341V142H305.859V122.364H309.528V125.56H309.771C310.222 124.52 310.93 123.685 311.893 123.054C312.864 122.423 314.087 122.108 315.562 122.108C316.9 122.108 318.072 122.389 319.077 122.952C320.083 123.506 320.863 124.332 321.417 125.432C321.971 126.531 322.248 127.891 322.248 129.51V142H318.425V129.97C318.425 128.547 318.055 127.435 317.313 126.634C316.572 125.824 315.553 125.419 314.258 125.419C313.371 125.419 312.583 125.611 311.893 125.994C311.211 126.378 310.67 126.94 310.269 127.682C309.877 128.415 309.681 129.301 309.681 130.341ZM330.979 142L323.718 115.818H327.873L332.974 136.094H333.217L338.522 115.818H342.638L347.944 136.107H348.187L353.275 115.818H357.442L350.168 142H346.192L340.683 122.389H340.478L334.968 142H330.979ZM367.075 142.396C365.234 142.396 363.628 141.974 362.256 141.131C360.884 140.287 359.818 139.107 359.06 137.589C358.301 136.072 357.922 134.3 357.922 132.271C357.922 130.234 358.301 128.453 359.06 126.928C359.818 125.402 360.884 124.217 362.256 123.374C363.628 122.53 365.234 122.108 367.075 122.108C368.916 122.108 370.523 122.53 371.895 123.374C373.267 124.217 374.332 125.402 375.091 126.928C375.849 128.453 376.229 130.234 376.229 132.271C376.229 134.3 375.849 136.072 375.091 137.589C374.332 139.107 373.267 140.287 371.895 141.131C370.523 141.974 368.916 142.396 367.075 142.396ZM367.088 139.188C368.281 139.188 369.27 138.872 370.054 138.241C370.838 137.611 371.418 136.771 371.793 135.723C372.176 134.675 372.368 133.52 372.368 132.259C372.368 131.006 372.176 129.855 371.793 128.807C371.418 127.75 370.838 126.902 370.054 126.263C369.27 125.624 368.281 125.304 367.088 125.304C365.886 125.304 364.889 125.624 364.097 126.263C363.313 126.902 362.729 127.75 362.345 128.807C361.97 129.855 361.783 131.006 361.783 132.259C361.783 133.52 361.97 134.675 362.345 135.723C362.729 136.771 363.313 137.611 364.097 138.241C364.889 138.872 365.886 139.188 367.088 139.188ZM380.495 142V122.364H384.19V125.483H384.395C384.752 124.426 385.383 123.595 386.287 122.99C387.199 122.376 388.23 122.07 389.38 122.07C389.619 122.07 389.9 122.078 390.224 122.095C390.556 122.112 390.816 122.134 391.004 122.159V125.815C390.85 125.773 390.578 125.726 390.186 125.675C389.794 125.615 389.402 125.585 389.01 125.585C388.106 125.585 387.301 125.777 386.593 126.161C385.895 126.536 385.341 127.06 384.931 127.733C384.522 128.398 384.318 129.156 384.318 130.009V142H380.495ZM397.827 135.339L397.802 130.673H398.467L406.29 122.364H410.867L401.944 131.824H401.343L397.827 135.339ZM394.312 142V115.818H398.134V142H394.312ZM406.712 142L399.681 132.668L402.315 129.996L411.404 142H406.712ZM429.065 127.158L425.601 127.771C425.456 127.328 425.226 126.906 424.911 126.506C424.604 126.105 424.186 125.777 423.658 125.521C423.129 125.266 422.469 125.138 421.676 125.138C420.594 125.138 419.69 125.381 418.966 125.866C418.241 126.344 417.879 126.962 417.879 127.72C417.879 128.376 418.122 128.905 418.608 129.305C419.094 129.706 419.878 130.034 420.96 130.29L424.08 131.006C425.886 131.423 427.233 132.067 428.119 132.936C429.006 133.805 429.449 134.935 429.449 136.324C429.449 137.5 429.108 138.548 428.426 139.469C427.753 140.381 426.811 141.097 425.601 141.616C424.399 142.136 423.006 142.396 421.42 142.396C419.222 142.396 417.428 141.928 416.038 140.99C414.649 140.044 413.797 138.702 413.482 136.963L417.176 136.401C417.406 137.364 417.879 138.092 418.595 138.587C419.311 139.072 420.244 139.315 421.395 139.315C422.648 139.315 423.649 139.055 424.399 138.536C425.149 138.007 425.524 137.364 425.524 136.605C425.524 135.991 425.294 135.476 424.834 135.058C424.382 134.641 423.688 134.325 422.75 134.112L419.426 133.384C417.594 132.966 416.239 132.301 415.361 131.389C414.491 130.477 414.057 129.322 414.057 127.925C414.057 126.766 414.381 125.751 415.028 124.882C415.676 124.013 416.571 123.335 417.713 122.849C418.855 122.355 420.163 122.108 421.638 122.108C423.76 122.108 425.43 122.568 426.649 123.489C427.868 124.401 428.673 125.624 429.065 127.158Z" fill="white"/>
<rect x="92" y="91" width="76" height="76" rx="38" fill="#45CA4C"/>
<path d="M118.969 137.938C119.656 137.938 120.292 137.797 120.875 137.516C121.458 137.234 121.938 136.849 122.312 136.359C122.688 135.859 122.901 135.292 122.953 134.656H125.703C125.651 135.656 125.312 136.589 124.688 137.453C124.073 138.307 123.266 139 122.266 139.531C121.266 140.052 120.167 140.312 118.969 140.312C117.698 140.312 116.589 140.089 115.641 139.641C114.703 139.193 113.922 138.578 113.297 137.797C112.682 137.016 112.219 136.12 111.906 135.109C111.604 134.089 111.453 133.01 111.453 131.875V131.219C111.453 130.083 111.604 129.01 111.906 128C112.219 126.979 112.682 126.078 113.297 125.297C113.922 124.516 114.703 123.901 115.641 123.453C116.589 123.005 117.698 122.781 118.969 122.781C120.292 122.781 121.448 123.052 122.438 123.594C123.427 124.125 124.203 124.854 124.766 125.781C125.339 126.698 125.651 127.74 125.703 128.906H122.953C122.901 128.208 122.703 127.578 122.359 127.016C122.026 126.453 121.568 126.005 120.984 125.672C120.411 125.328 119.74 125.156 118.969 125.156C118.083 125.156 117.339 125.333 116.734 125.688C116.141 126.031 115.667 126.5 115.312 127.094C114.969 127.677 114.719 128.328 114.562 129.047C114.417 129.755 114.344 130.479 114.344 131.219V131.875C114.344 132.615 114.417 133.344 114.562 134.062C114.708 134.781 114.953 135.432 115.297 136.016C115.651 136.599 116.125 137.068 116.719 137.422C117.323 137.766 118.073 137.938 118.969 137.938ZM133.234 137L137.578 123.094H139.484L139.109 125.859L134.688 140H132.828L133.234 137ZM130.312 123.094L134.016 137.156L134.281 140H132.328L127.422 123.094H130.312ZM143.641 137.047L147.172 123.094H150.047L145.141 140H143.203L143.641 137.047ZM139.906 123.094L144.156 136.766L144.641 140H142.797L138.25 125.828L137.875 123.094H139.906Z" fill="white"/>
<path d="M96.2045 497V467.909H105.168C107.014 467.909 108.596 468.288 109.912 469.045C111.238 469.803 112.256 470.84 112.966 472.156C113.676 473.473 114.031 474.973 114.031 476.659C114.031 478.326 113.676 479.817 112.966 481.134C112.256 482.45 111.238 483.491 109.912 484.259C108.596 485.016 107.019 485.395 105.182 485.395H97.4545V483.747H105.139C106.635 483.747 107.914 483.444 108.974 482.838C110.035 482.223 110.849 481.384 111.418 480.324C111.986 479.254 112.27 478.032 112.27 476.659C112.27 475.277 111.986 474.05 111.418 472.98C110.849 471.91 110.03 471.072 108.96 470.466C107.9 469.86 106.621 469.557 105.125 469.557H97.9801V497H96.2045ZM128.119 497.455C126.319 497.455 124.719 496.972 123.317 496.006C121.916 495.03 120.813 493.69 120.008 491.986C119.203 490.281 118.8 488.34 118.8 486.162C118.8 483.974 119.203 482.033 120.008 480.338C120.813 478.634 121.916 477.294 123.317 476.318C124.719 475.343 126.319 474.855 128.119 474.855C129.918 474.855 131.518 475.343 132.92 476.318C134.321 477.294 135.424 478.634 136.229 480.338C137.034 482.043 137.437 483.984 137.437 486.162C137.437 488.34 137.034 490.281 136.229 491.986C135.424 493.69 134.321 495.03 132.92 496.006C131.518 496.972 129.918 497.455 128.119 497.455ZM128.119 495.849C129.643 495.849 130.974 495.419 132.11 494.557C133.256 493.695 134.141 492.53 134.766 491.062C135.401 489.595 135.718 487.961 135.718 486.162C135.718 484.363 135.401 482.734 134.766 481.276C134.132 479.808 133.246 478.643 132.11 477.781C130.974 476.91 129.643 476.474 128.119 476.474C126.594 476.474 125.263 476.91 124.127 477.781C122.991 478.643 122.105 479.808 121.471 481.276C120.836 482.734 120.519 484.363 120.519 486.162C120.519 487.961 120.832 489.595 121.457 491.062C122.091 492.53 122.977 493.695 124.113 494.557C125.259 495.419 126.594 495.849 128.119 495.849ZM157.27 479.884L155.665 480.31C155.409 479.514 155.045 478.828 154.571 478.25C154.098 477.672 153.501 477.227 152.781 476.915C152.071 476.593 151.219 476.432 150.224 476.432C148.624 476.432 147.313 476.83 146.29 477.625C145.277 478.42 144.77 479.457 144.77 480.736C144.77 481.777 145.116 482.639 145.807 483.321C146.498 483.993 147.554 484.505 148.974 484.855L152.327 485.693C154.05 486.119 155.348 486.811 156.219 487.767C157.09 488.714 157.526 489.893 157.526 491.304C157.526 492.507 157.199 493.572 156.545 494.5C155.892 495.428 154.988 496.152 153.832 496.673C152.687 497.194 151.351 497.455 149.827 497.455C147.791 497.455 146.119 496.981 144.812 496.034C143.506 495.078 142.668 493.709 142.298 491.929L143.96 491.503C144.273 492.923 144.921 494.008 145.906 494.756C146.901 495.494 148.203 495.864 149.812 495.864C151.593 495.864 153.027 495.442 154.116 494.599C155.215 493.757 155.764 492.677 155.764 491.361C155.764 490.357 155.442 489.509 154.798 488.818C154.154 488.127 153.179 487.62 151.872 487.298L148.392 486.446C146.612 486.01 145.277 485.314 144.386 484.358C143.496 483.392 143.051 482.204 143.051 480.793C143.051 479.618 143.359 478.586 143.974 477.696C144.59 476.806 145.438 476.11 146.517 475.608C147.597 475.106 148.832 474.855 150.224 474.855C152.071 474.855 153.577 475.291 154.741 476.162C155.906 477.033 156.749 478.274 157.27 479.884ZM171.237 475.182V476.73H161.705V475.182H171.237ZM164.93 469.955H166.648V491.844C166.648 492.734 166.819 493.463 167.16 494.031C167.51 494.59 167.965 495.007 168.523 495.281C169.092 495.546 169.698 495.679 170.342 495.679C170.654 495.679 170.924 495.655 171.151 495.608C171.388 495.561 171.611 495.499 171.819 495.423L172.245 497C171.98 497.095 171.686 497.175 171.364 497.241C171.042 497.317 170.664 497.355 170.228 497.355C169.319 497.355 168.457 497.152 167.643 496.744C166.838 496.337 166.184 495.745 165.683 494.969C165.181 494.192 164.93 493.255 164.93 492.156V469.955ZM179.866 482.852V497H178.133V467.909H179.866V478.634H180.036C180.548 477.497 181.362 476.593 182.479 475.92C183.606 475.239 184.956 474.898 186.528 474.898C187.996 474.898 189.288 475.21 190.406 475.835C191.523 476.451 192.394 477.336 193.019 478.491C193.654 479.637 193.971 481.01 193.971 482.611V497H192.252V482.682C192.252 480.816 191.698 479.32 190.59 478.193C189.482 477.066 188.019 476.503 186.201 476.503C184.979 476.503 183.89 476.768 182.934 477.298C181.978 477.829 181.225 478.572 180.675 479.528C180.136 480.475 179.866 481.583 179.866 482.852ZM209.251 497.455C207.452 497.455 205.852 496.972 204.45 496.006C203.049 495.03 201.946 493.69 201.141 491.986C200.336 490.281 199.933 488.34 199.933 486.162C199.933 483.974 200.336 482.033 201.141 480.338C201.946 478.634 203.049 477.294 204.45 476.318C205.852 475.343 207.452 474.855 209.251 474.855C211.051 474.855 212.651 475.343 214.053 476.318C215.454 477.294 216.557 478.634 217.362 480.338C218.167 482.043 218.57 483.984 218.57 486.162C218.57 488.34 218.167 490.281 217.362 491.986C216.557 493.69 215.454 495.03 214.053 496.006C212.651 496.972 211.051 497.455 209.251 497.455ZM209.251 495.849C210.776 495.849 212.107 495.419 213.243 494.557C214.389 493.695 215.274 492.53 215.899 491.062C216.534 489.595 216.851 487.961 216.851 486.162C216.851 484.363 216.534 482.734 215.899 481.276C215.265 479.808 214.379 478.643 213.243 477.781C212.107 476.91 210.776 476.474 209.251 476.474C207.727 476.474 206.396 476.91 205.26 477.781C204.124 478.643 203.238 479.808 202.604 481.276C201.969 482.734 201.652 484.363 201.652 486.162C201.652 487.961 201.964 489.595 202.589 491.062C203.224 492.53 204.109 493.695 205.246 494.557C206.392 495.419 207.727 495.849 209.251 495.849ZM232.408 505.636C231.054 505.636 229.837 505.456 228.758 505.097C227.678 504.746 226.76 504.244 226.002 503.591C225.254 502.938 224.681 502.161 224.283 501.261L225.732 500.409C226.054 501.11 226.513 501.735 227.11 502.284C227.707 502.833 228.445 503.264 229.326 503.577C230.216 503.889 231.244 504.045 232.408 504.045C234.511 504.045 236.173 503.501 237.394 502.412C238.625 501.332 239.241 499.675 239.241 497.44V492.014H239.07C238.739 492.961 238.246 493.804 237.593 494.543C236.949 495.272 236.158 495.845 235.221 496.261C234.283 496.678 233.218 496.886 232.025 496.886C230.301 496.886 228.786 496.441 227.479 495.551C226.173 494.661 225.155 493.411 224.425 491.801C223.696 490.182 223.332 488.278 223.332 486.091C223.332 483.903 223.687 481.967 224.397 480.281C225.117 478.586 226.13 477.26 227.437 476.304C228.744 475.338 230.278 474.855 232.039 474.855C233.299 474.855 234.388 475.097 235.306 475.58C236.234 476.053 237.011 476.683 237.636 477.469C238.261 478.255 238.744 479.116 239.085 480.054H239.283V475.182H240.96V497.511C240.96 499.33 240.6 500.84 239.88 502.043C239.17 503.245 238.171 504.145 236.883 504.741C235.604 505.338 234.113 505.636 232.408 505.636ZM232.181 495.281C233.639 495.281 234.894 494.912 235.945 494.173C237.006 493.425 237.82 492.365 238.388 490.991C238.966 489.609 239.255 487.971 239.255 486.077C239.255 484.24 238.976 482.597 238.417 481.148C237.858 479.699 237.049 478.558 235.988 477.724C234.927 476.891 233.658 476.474 232.181 476.474C230.675 476.474 229.392 476.901 228.332 477.753C227.271 478.596 226.457 479.741 225.888 481.19C225.33 482.639 225.05 484.268 225.05 486.077C225.05 487.895 225.335 489.495 225.903 490.878C226.471 492.251 227.285 493.33 228.346 494.116C229.406 494.893 230.685 495.281 232.181 495.281ZM267.952 491.091V473.861H269.614V491.091H267.952ZM260.168 483.307V481.645H277.398V483.307H260.168ZM312.785 475.182C312.633 473.373 311.895 471.91 310.569 470.793C309.253 469.675 307.548 469.116 305.455 469.116C304.044 469.116 302.79 469.377 301.691 469.898C300.593 470.419 299.731 471.129 299.106 472.028C298.481 472.928 298.168 473.96 298.168 475.125C298.168 475.873 298.31 476.55 298.594 477.156C298.888 477.753 299.3 478.288 299.83 478.761C300.361 479.225 300.99 479.633 301.719 479.983C302.449 480.333 303.254 480.641 304.134 480.906L307.316 481.844C308.405 482.175 309.409 482.559 310.327 482.994C311.255 483.43 312.06 483.951 312.742 484.557C313.433 485.153 313.969 485.854 314.347 486.659C314.736 487.464 314.93 488.392 314.93 489.443C314.93 490.977 314.532 492.35 313.737 493.562C312.951 494.775 311.828 495.731 310.37 496.432C308.921 497.123 307.212 497.469 305.242 497.469C303.367 497.469 301.734 497.152 300.342 496.517C298.959 495.883 297.865 495.002 297.06 493.875C296.255 492.739 295.801 491.432 295.697 489.955H297.515C297.61 491.157 297.993 492.199 298.665 493.08C299.347 493.951 300.252 494.623 301.379 495.097C302.505 495.57 303.793 495.807 305.242 495.807C306.805 495.807 308.183 495.542 309.376 495.011C310.569 494.472 311.502 493.723 312.174 492.767C312.846 491.811 313.183 490.698 313.183 489.429C313.183 488.406 312.941 487.53 312.458 486.801C311.975 486.072 311.26 485.442 310.313 484.912C309.376 484.382 308.211 483.908 306.819 483.491L303.424 482.469C301.151 481.777 299.414 480.835 298.211 479.642C297.018 478.449 296.421 476.962 296.421 475.182C296.421 473.686 296.819 472.36 297.614 471.205C298.41 470.04 299.489 469.126 300.853 468.463C302.226 467.8 303.774 467.469 305.498 467.469C307.231 467.469 308.76 467.805 310.086 468.477C311.412 469.14 312.463 470.054 313.239 471.219C314.016 472.374 314.447 473.695 314.532 475.182H312.785ZM323.069 482.852V497H321.336V467.909H323.069V478.634H323.239C323.751 477.497 324.565 476.593 325.683 475.92C326.809 475.239 328.159 474.898 329.731 474.898C331.199 474.898 332.491 475.21 333.609 475.835C334.726 476.451 335.597 477.336 336.222 478.491C336.857 479.637 337.174 481.01 337.174 482.611V497H335.455V482.682C335.455 480.816 334.901 479.32 333.793 478.193C332.685 477.066 331.222 476.503 329.404 476.503C328.183 476.503 327.094 476.768 326.137 477.298C325.181 477.829 324.428 478.572 323.879 479.528C323.339 480.475 323.069 481.583 323.069 482.852ZM352.455 497.455C350.655 497.455 349.055 496.972 347.653 496.006C346.252 495.03 345.149 493.69 344.344 491.986C343.539 490.281 343.136 488.34 343.136 486.162C343.136 483.974 343.539 482.033 344.344 480.338C345.149 478.634 346.252 477.294 347.653 476.318C349.055 475.343 350.655 474.855 352.455 474.855C354.254 474.855 355.854 475.343 357.256 476.318C358.657 477.294 359.76 478.634 360.565 480.338C361.37 482.043 361.773 483.984 361.773 486.162C361.773 488.34 361.37 490.281 360.565 491.986C359.76 493.69 358.657 495.03 357.256 496.006C355.854 496.972 354.254 497.455 352.455 497.455ZM352.455 495.849C353.979 495.849 355.31 495.419 356.446 494.557C357.592 493.695 358.477 492.53 359.102 491.062C359.737 489.595 360.054 487.961 360.054 486.162C360.054 484.363 359.737 482.734 359.102 481.276C358.468 479.808 357.582 478.643 356.446 477.781C355.31 476.91 353.979 476.474 352.455 476.474C350.93 476.474 349.599 476.91 348.463 477.781C347.327 478.643 346.441 479.808 345.807 481.276C345.172 482.734 344.855 484.363 344.855 486.162C344.855 487.961 345.168 489.595 345.793 491.062C346.427 492.53 347.312 493.695 348.449 494.557C349.595 495.419 350.93 495.849 352.455 495.849ZM367.742 505.182V475.182H369.433V480.054H369.646C369.987 479.116 370.465 478.255 371.08 477.469C371.705 476.683 372.477 476.053 373.396 475.58C374.324 475.097 375.413 474.855 376.663 474.855C378.424 474.855 379.958 475.338 381.265 476.304C382.572 477.27 383.585 478.605 384.305 480.31C385.024 482.005 385.384 483.951 385.384 486.148C385.384 488.345 385.02 490.295 384.29 492C383.571 493.695 382.558 495.03 381.251 496.006C379.953 496.972 378.433 497.455 376.691 497.455C375.451 497.455 374.362 497.218 373.424 496.744C372.496 496.271 371.715 495.641 371.08 494.855C370.455 494.06 369.977 493.188 369.646 492.241H369.475V505.182H367.742ZM369.447 486.134C369.447 487.99 369.731 489.652 370.299 491.119C370.867 492.578 371.682 493.733 372.742 494.585C373.803 495.428 375.067 495.849 376.535 495.849C378.022 495.849 379.295 495.423 380.356 494.571C381.426 493.709 382.24 492.545 382.799 491.077C383.367 489.609 383.651 487.961 383.651 486.134C383.651 484.306 383.372 482.663 382.813 481.205C382.254 479.746 381.445 478.596 380.384 477.753C379.324 476.901 378.04 476.474 376.535 476.474C375.048 476.474 373.774 476.896 372.714 477.739C371.663 478.572 370.853 479.718 370.285 481.176C369.726 482.625 369.447 484.277 369.447 486.134ZM391.46 497V475.182H393.179V497H391.46ZM392.327 471.318C391.948 471.318 391.616 471.186 391.332 470.92C391.058 470.655 390.92 470.333 390.92 469.955C390.92 469.576 391.058 469.254 391.332 468.989C391.607 468.723 391.938 468.591 392.327 468.591C392.705 468.591 393.032 468.723 393.307 468.989C393.591 469.254 393.733 469.576 393.733 469.955C393.733 470.333 393.596 470.655 393.321 470.92C393.046 471.186 392.715 471.318 392.327 471.318ZM408.676 475.182V476.73H399.003V475.182H408.676ZM402.185 497V471.787C402.185 470.688 402.436 469.751 402.938 468.974C403.439 468.198 404.098 467.606 404.912 467.199C405.736 466.792 406.621 466.588 407.568 466.588C408.07 466.588 408.496 466.631 408.847 466.716C409.206 466.792 409.519 466.882 409.784 466.986L409.273 468.52C409.055 468.444 408.818 468.378 408.562 468.321C408.316 468.264 408.023 468.236 407.682 468.236C406.583 468.236 405.679 468.572 404.969 469.244C404.259 469.917 403.903 470.854 403.903 472.057L403.889 497H402.185ZM415.462 505.182C415.027 505.182 414.596 505.134 414.17 505.04C413.744 504.945 413.36 504.822 413.019 504.67L413.531 503.151C414.421 503.491 415.226 503.615 415.945 503.52C416.674 503.425 417.318 503.094 417.877 502.526C418.436 501.957 418.909 501.124 419.298 500.026L420.292 497.298L412.295 475.182H414.156L421.087 494.77H421.229L428.161 475.182H430.022L420.817 500.707C420.467 501.692 420.027 502.516 419.496 503.179C418.966 503.842 418.36 504.339 417.678 504.67C417.006 505.011 416.267 505.182 415.462 505.182ZM446.688 497V475.182H448.378V478.477H448.548C448.965 477.379 449.685 476.508 450.707 475.864C451.73 475.22 452.961 474.898 454.401 474.898C455.982 474.898 457.256 475.277 458.222 476.034C459.197 476.792 459.898 477.819 460.324 479.116H460.48C460.906 477.838 461.669 476.815 462.767 476.048C463.875 475.281 465.239 474.898 466.858 474.898C468.97 474.898 470.58 475.565 471.688 476.901C472.805 478.226 473.364 480.045 473.364 482.355V497H471.631V482.355C471.631 480.537 471.195 479.107 470.324 478.065C469.453 477.024 468.174 476.503 466.489 476.503C464.689 476.503 463.307 477.066 462.341 478.193C461.375 479.32 460.892 480.755 460.892 482.497V497H459.159V482.241C459.159 480.546 458.733 479.169 457.881 478.108C457.028 477.038 455.75 476.503 454.045 476.503C452.89 476.503 451.891 476.768 451.048 477.298C450.215 477.829 449.566 478.558 449.102 479.486C448.648 480.414 448.42 481.479 448.42 482.682V497H446.688ZM486.336 497.469C485.076 497.469 483.921 497.218 482.87 496.716C481.828 496.214 480.99 495.48 480.356 494.514C479.731 493.548 479.418 492.374 479.418 490.991C479.418 490.082 479.579 489.282 479.901 488.591C480.223 487.9 480.72 487.303 481.393 486.801C482.065 486.299 482.927 485.887 483.978 485.565C485.029 485.234 486.284 484.978 487.742 484.798C488.85 484.666 489.84 484.538 490.711 484.415C491.582 484.282 492.264 484.079 492.756 483.804C493.258 483.529 493.509 483.113 493.509 482.554V481.645C493.509 480.054 493.007 478.79 492.004 477.852C491 476.915 489.617 476.446 487.856 476.446C486.293 476.446 484.977 476.792 483.907 477.483C482.846 478.165 482.103 479.045 481.677 480.125L480.043 479.514C480.46 478.473 481.061 477.606 481.847 476.915C482.643 476.223 483.552 475.707 484.575 475.366C485.607 475.026 486.686 474.855 487.813 474.855C488.789 474.855 489.717 474.992 490.597 475.267C491.487 475.542 492.278 475.958 492.969 476.517C493.67 477.076 494.224 477.791 494.631 478.662C495.039 479.524 495.242 480.556 495.242 481.759V497H493.509V493.065H493.381C493.003 493.88 492.482 494.623 491.819 495.295C491.165 495.958 490.375 496.489 489.447 496.886C488.528 497.275 487.491 497.469 486.336 497.469ZM486.506 495.864C487.87 495.864 489.077 495.532 490.129 494.869C491.189 494.197 492.018 493.278 492.614 492.114C493.211 490.949 493.509 489.628 493.509 488.151V484.94C493.291 485.13 492.974 485.3 492.558 485.452C492.15 485.594 491.686 485.722 491.165 485.835C490.654 485.939 490.114 486.034 489.546 486.119C488.987 486.195 488.443 486.266 487.913 486.332C486.322 486.522 485.024 486.815 484.021 487.213C483.026 487.601 482.297 488.113 481.833 488.747C481.379 489.382 481.151 490.149 481.151 491.048C481.151 492.535 481.663 493.709 482.685 494.571C483.708 495.433 484.982 495.864 486.506 495.864ZM509.994 497.455C508.242 497.455 506.712 496.972 505.406 496.006C504.099 495.04 503.085 493.709 502.366 492.014C501.656 490.31 501.3 488.354 501.3 486.148C501.3 483.96 501.66 482.019 502.38 480.324C503.109 478.619 504.127 477.284 505.434 476.318C506.741 475.343 508.265 474.855 510.008 474.855C511.258 474.855 512.342 475.097 513.261 475.58C514.189 476.053 514.965 476.683 515.59 477.469C516.225 478.255 516.708 479.116 517.039 480.054H517.21V467.909H518.928V497H517.252V492.241H517.039C516.689 493.179 516.201 494.045 515.576 494.841C514.951 495.627 514.174 496.261 513.246 496.744C512.318 497.218 511.234 497.455 509.994 497.455ZM510.15 495.849C511.627 495.849 512.891 495.428 513.942 494.585C515.003 493.733 515.813 492.578 516.371 491.119C516.94 489.652 517.224 487.99 517.224 486.134C517.224 484.277 516.94 482.625 516.371 481.176C515.813 479.718 515.003 478.572 513.942 477.739C512.891 476.896 511.627 476.474 510.15 476.474C508.654 476.474 507.371 476.901 506.3 477.753C505.24 478.596 504.425 479.746 503.857 481.205C503.299 482.663 503.019 484.306 503.019 486.134C503.019 487.961 503.299 489.609 503.857 491.077C504.425 492.545 505.24 493.709 506.3 494.571C507.371 495.423 508.654 495.849 510.15 495.849ZM535.235 497.455C533.265 497.455 531.551 496.967 530.093 495.991C528.635 495.016 527.508 493.681 526.712 491.986C525.917 490.291 525.519 488.359 525.519 486.19C525.519 484.012 525.917 482.071 526.712 480.366C527.517 478.662 528.621 477.317 530.022 476.332C531.424 475.348 533.024 474.855 534.823 474.855C536.045 474.855 537.2 475.101 538.289 475.594C539.388 476.077 540.353 476.777 541.187 477.696C542.03 478.615 542.688 479.723 543.161 481.02C543.644 482.317 543.886 483.776 543.886 485.395V486.474H526.613V484.898H542.153C542.153 483.316 541.831 481.891 541.187 480.622C540.543 479.353 539.667 478.345 538.559 477.597C537.451 476.848 536.206 476.474 534.823 476.474C533.374 476.474 532.082 476.882 530.945 477.696C529.818 478.501 528.924 479.59 528.261 480.963C527.607 482.336 527.266 483.87 527.238 485.565V486.276C527.238 488.094 527.555 489.727 528.19 491.176C528.834 492.616 529.752 493.757 530.945 494.599C532.138 495.433 533.568 495.849 535.235 495.849C536.428 495.849 537.446 495.651 538.289 495.253C539.141 494.846 539.837 494.353 540.377 493.776C540.917 493.198 541.324 492.639 541.599 492.099L543.175 492.739C542.844 493.468 542.328 494.197 541.627 494.926C540.936 495.646 540.055 496.247 538.985 496.73C537.924 497.213 536.674 497.455 535.235 497.455ZM569.61 497.455C567.64 497.455 565.926 496.967 564.468 495.991C563.01 495.016 561.883 493.681 561.087 491.986C560.292 490.291 559.894 488.359 559.894 486.19C559.894 484.012 560.292 482.071 561.087 480.366C561.892 478.662 562.996 477.317 564.397 476.332C565.799 475.348 567.399 474.855 569.198 474.855C570.42 474.855 571.575 475.101 572.664 475.594C573.763 476.077 574.728 476.777 575.562 477.696C576.405 478.615 577.063 479.723 577.536 481.02C578.019 482.317 578.261 483.776 578.261 485.395V486.474H560.988V484.898H576.528C576.528 483.316 576.206 481.891 575.562 480.622C574.918 479.353 574.042 478.345 572.934 477.597C571.826 476.848 570.581 476.474 569.198 476.474C567.749 476.474 566.457 476.882 565.32 477.696C564.193 478.501 563.299 479.59 562.636 480.963C561.982 482.336 561.641 483.87 561.613 485.565V486.276C561.613 488.094 561.93 489.727 562.565 491.176C563.209 492.616 564.127 493.757 565.32 494.599C566.513 495.433 567.943 495.849 569.61 495.849C570.803 495.849 571.821 495.651 572.664 495.253C573.516 494.846 574.212 494.353 574.752 493.776C575.292 493.198 575.699 492.639 575.974 492.099L577.55 492.739C577.219 493.468 576.703 494.197 576.002 494.926C575.311 495.646 574.43 496.247 573.36 496.73C572.299 497.213 571.049 497.455 569.61 497.455ZM590.008 497.469C588.748 497.469 587.593 497.218 586.542 496.716C585.5 496.214 584.662 495.48 584.028 494.514C583.403 493.548 583.09 492.374 583.09 490.991C583.09 490.082 583.251 489.282 583.573 488.591C583.895 487.9 584.392 487.303 585.065 486.801C585.737 486.299 586.599 485.887 587.65 485.565C588.701 485.234 589.956 484.978 591.414 484.798C592.522 484.666 593.512 484.538 594.383 484.415C595.254 484.282 595.936 484.079 596.428 483.804C596.93 483.529 597.181 483.113 597.181 482.554V481.645C597.181 480.054 596.679 478.79 595.675 477.852C594.672 476.915 593.289 476.446 591.528 476.446C589.965 476.446 588.649 476.792 587.579 477.483C586.518 478.165 585.775 479.045 585.349 480.125L583.715 479.514C584.132 478.473 584.733 477.606 585.519 476.915C586.315 476.223 587.224 475.707 588.246 475.366C589.279 475.026 590.358 474.855 591.485 474.855C592.46 474.855 593.388 474.992 594.269 475.267C595.159 475.542 595.95 475.958 596.641 476.517C597.342 477.076 597.896 477.791 598.303 478.662C598.71 479.524 598.914 480.556 598.914 481.759V497H597.181V493.065H597.053C596.674 493.88 596.154 494.623 595.491 495.295C594.837 495.958 594.047 496.489 593.119 496.886C592.2 497.275 591.163 497.469 590.008 497.469ZM590.178 495.864C591.542 495.864 592.749 495.532 593.8 494.869C594.861 494.197 595.69 493.278 596.286 492.114C596.883 490.949 597.181 489.628 597.181 488.151V484.94C596.963 485.13 596.646 485.3 596.229 485.452C595.822 485.594 595.358 485.722 594.837 485.835C594.326 485.939 593.786 486.034 593.218 486.119C592.659 486.195 592.115 486.266 591.585 486.332C589.994 486.522 588.696 486.815 587.692 487.213C586.698 487.601 585.969 488.113 585.505 488.747C585.05 489.382 584.823 490.149 584.823 491.048C584.823 492.535 585.335 493.709 586.357 494.571C587.38 495.433 588.654 495.864 590.178 495.864ZM620.043 479.884L618.438 480.31C618.183 479.514 617.818 478.828 617.344 478.25C616.871 477.672 616.274 477.227 615.555 476.915C614.844 476.593 613.992 476.432 612.998 476.432C611.397 476.432 610.086 476.83 609.063 477.625C608.05 478.42 607.543 479.457 607.543 480.736C607.543 481.777 607.889 482.639 608.58 483.321C609.272 483.993 610.327 484.505 611.748 484.855L615.1 485.693C616.824 486.119 618.121 486.811 618.992 487.767C619.863 488.714 620.299 489.893 620.299 491.304C620.299 492.507 619.972 493.572 619.319 494.5C618.665 495.428 617.761 496.152 616.606 496.673C615.46 497.194 614.125 497.455 612.6 497.455C610.564 497.455 608.893 496.981 607.586 496.034C606.279 495.078 605.441 493.709 605.072 491.929L606.734 491.503C607.046 492.923 607.695 494.008 608.68 494.756C609.674 495.494 610.976 495.864 612.586 495.864C614.366 495.864 615.801 495.442 616.89 494.599C617.988 493.757 618.538 492.677 618.538 491.361C618.538 490.357 618.216 489.509 617.572 488.818C616.928 488.127 615.952 487.62 614.646 487.298L611.165 486.446C609.385 486.01 608.05 485.314 607.16 484.358C606.27 483.392 605.825 482.204 605.825 480.793C605.825 479.618 606.132 478.586 606.748 477.696C607.363 476.806 608.211 476.11 609.29 475.608C610.37 475.106 611.606 474.855 612.998 474.855C614.844 474.855 616.35 475.291 617.515 476.162C618.68 477.033 619.522 478.274 620.043 479.884ZM627.689 505.182C627.253 505.182 626.822 505.134 626.396 505.04C625.97 504.945 625.587 504.822 625.246 504.67L625.757 503.151C626.647 503.491 627.452 503.615 628.172 503.52C628.901 503.425 629.545 503.094 630.104 502.526C630.662 501.957 631.136 501.124 631.524 500.026L632.518 497.298L624.521 475.182H626.382L633.314 494.77H633.456L640.388 475.182H642.249L633.044 500.707C632.694 501.692 632.253 502.516 631.723 503.179C631.193 503.842 630.587 504.339 629.905 504.67C629.232 505.011 628.494 505.182 627.689 505.182Z" fill="white" fill-opacity="0.8"/>
<path d="M1770.53 316H1670.47C1645.91 316 1626 335.91 1626 360.471V460.529C1626 485.09 1645.91 505 1670.47 505H1770.53C1795.09 505 1815 485.09 1815 460.529V360.471C1815 335.91 1795.09 316 1770.53 316Z" fill="white"/>
<path d="M1653 350.11C1653 347.622 1653 346.377 1653.48 345.427C1653.91 344.591 1654.59 343.911 1655.43 343.485C1656.38 343 1657.62 343 1660.11 343H1681.44C1683.93 343 1685.17 343 1686.12 343.485C1686.96 343.911 1687.64 344.591 1688.07 345.427C1688.55 346.377 1688.55 347.622 1688.55 350.11V371.44C1688.55 373.929 1688.55 375.174 1688.07 376.124C1687.64 376.96 1686.96 377.64 1686.12 378.066C1685.17 378.55 1683.93 378.55 1681.44 378.55H1660.11C1657.62 378.55 1656.38 378.55 1655.43 378.066C1654.59 377.64 1653.91 376.96 1653.48 376.124C1653 375.174 1653 373.929 1653 371.44V350.11Z" fill="#3C78D8"/>
<path d="M1659.75 415.36C1659.75 412.872 1659.75 411.627 1660.23 410.677C1660.66 409.841 1661.34 409.161 1662.18 408.735C1663.13 408.25 1664.37 408.25 1666.86 408.25H1688.19C1690.68 408.25 1691.92 408.25 1692.87 408.735C1693.71 409.161 1694.39 409.841 1694.82 410.677C1695.3 411.627 1695.3 412.872 1695.3 415.36V436.69C1695.3 439.179 1695.3 440.424 1694.82 441.374C1694.39 442.21 1693.71 442.89 1692.87 443.316C1691.92 443.8 1690.68 443.8 1688.19 443.8H1666.86C1664.37 443.8 1663.13 443.8 1662.18 443.316C1661.34 442.89 1660.66 442.21 1660.23 441.374C1659.75 440.424 1659.75 439.179 1659.75 436.69V415.36Z" fill="#FFCA28"/>
<path d="M1707 377.11C1707 374.622 1707 373.377 1707.48 372.427C1707.91 371.591 1708.59 370.911 1709.43 370.485C1710.38 370 1711.62 370 1714.11 370H1735.44C1737.93 370 1739.17 370 1740.12 370.485C1740.96 370.911 1741.64 371.591 1742.07 372.427C1742.55 373.377 1742.55 374.622 1742.55 377.11V398.44C1742.55 400.929 1742.55 402.174 1742.07 403.124C1741.64 403.96 1740.96 404.64 1740.12 405.066C1739.17 405.55 1737.93 405.55 1735.44 405.55H1714.11C1711.62 405.55 1710.38 405.55 1709.43 405.066C1708.59 404.64 1707.91 403.96 1707.48 403.124C1707 402.174 1707 400.929 1707 398.44V377.11Z" fill="#FF7043"/>
<path d="M1789.74 485.65C1791.81 485.65 1792.84 485.65 1793.63 485.248C1794.33 484.894 1794.89 484.329 1795.25 483.634C1795.65 482.844 1795.65 481.809 1795.65 479.74V402.91C1795.65 400.842 1795.65 399.807 1795.25 399.017C1794.89 398.322 1794.33 397.757 1793.63 397.403C1792.84 397 1791.81 397 1789.74 397L1772.01 397C1769.94 397 1768.91 397 1768.12 397.403C1767.42 397.757 1766.86 398.322 1766.5 399.017C1766.1 399.807 1766.1 400.842 1766.1 402.91V420.64C1766.1 422.709 1766.1 423.744 1765.7 424.534C1765.34 425.229 1764.78 425.794 1764.08 426.148C1763.29 426.55 1762.26 426.55 1760.19 426.55H1742.46C1740.39 426.55 1739.36 426.55 1738.57 426.953C1737.87 427.307 1737.31 427.872 1736.95 428.567C1736.55 429.357 1736.55 430.392 1736.55 432.46V450.19C1736.55 452.259 1736.55 453.294 1736.15 454.084C1735.79 454.779 1735.23 455.344 1734.53 455.698C1733.74 456.1 1732.71 456.1 1730.64 456.1H1712.91C1710.84 456.1 1709.81 456.1 1709.02 456.503C1708.32 456.857 1707.76 457.422 1707.4 458.117C1707 458.907 1707 459.942 1707 462.01V479.74C1707 481.809 1707 482.844 1707.4 483.634C1707.76 484.329 1708.32 484.894 1709.02 485.248C1709.81 485.65 1710.84 485.65 1712.91 485.65L1789.74 485.65Z" fill="#424242"/>
</svg>
